<svg width="135" height="138" viewBox="0 0 135 138" fill="none" xmlns="http://www.w3.org/2000/svg">
<path d="M69.539 0.140248C71.2237 20.7713 72.9084 41.4024 74.6697 62.9709L134.828 67.9269C134.885 68.6216 134.942 69.3162 135 70.0106L74.7036 75.2209C72.9473 96.3879 71.2294 117.093 69.5114 137.798L67.7834 138C66.5506 123.343 65.3193 108.686 64.0895 94.0281C62.3547 72.9914 66.608 75.4189 43.6565 73.4832C30.8419 72.4024 18.0092 71.5408 5.18823 70.5348C4.52923 70.4831 3.90367 70.0002 -0.000366211 68.2824L62.4222 62.9362C64.2338 41.6883 66.0109 20.8443 67.788 0.000297546L69.539 0.140248Z" fill="white"/>
</svg>
